# MagicaVoxel @ Ephtracy

# group
o 

# material
mtllib CHICKEN.mtl
usemtl palette

# normals
vn -1 0 0
vn 1 0 0
vn 0 0 1
vn 0 0 -1
vn 0 -1 0
vn 0 1 0

# texcoords
vt 0.00195313 0.5
vt 0.00585938 0.5
vt 0.00976563 0.5
vt 0.0136719 0.5
vt 0.306641 0.5

# verts
v 0.3 2.3 -0.8
v 0.3 2.3 -1.1
v 0.3 2.5 -0.8
v 0.3 2.5 -1.1
v 0.5 2.1 -0.8
v 0.5 2.1 -1.1
v 0.5 2.3 -0.8
v 0.5 2.3 -1.1
v 0.6 1.4 -0.6
v 0.6 1.4 -1.3
v 0.6 2.1 -0.8
v 0.6 2.1 -1.1
v 0.6 2.3 -0.8
v 0.6 2.3 -1.1
v 0.6 2.5 -0.8
v 0.6 2.5 -1.1
v 0.6 2.7 -0.6
v 0.6 2.7 -1.3
v 0.7 1 -0.6
v 0.7 1 -0.7
v 0.7 1 -0.8
v 0.7 1 -0.9
v 0.7 1 -1
v 0.7 1 -1.1
v 0.7 1 -1.2
v 0.7 1 -1.3
v 0.7 1.1 -0.6
v 0.7 1.1 -0.7
v 0.7 1.1 -0.8
v 0.7 1.1 -0.9
v 0.7 1.1 -1
v 0.7 1.1 -1.1
v 0.7 1.1 -1.2
v 0.7 1.1 -1.3
v 0.7 2.7 -0.8
v 0.7 2.7 -1.1
v 0.7 2.9 -0.8
v 0.7 2.9 -1.1
v 0.8 1.5 -0.4
v 0.8 1.5 -0.6
v 0.8 1.5 -1.3
v 0.8 1.5 -1.5
v 0.8 1.8 -0.4
v 0.8 1.8 -0.6
v 0.8 1.8 -1.3
v 0.8 1.8 -1.5
v 0.9 1 -0.7
v 0.9 1 -0.8
v 0.9 1 -1.1
v 0.9 1 -1.2
v 0.9 1.1 -0.7
v 0.9 1.1 -0.8
v 0.9 1.1 -1.1
v 0.9 1.1 -1.2
v 1 1.1 -0.7
v 1 1.1 -0.8
v 1 1.1 -1.1
v 1 1.1 -1.2
v 1 1.4 -0.7
v 1 1.4 -0.8
v 1 1.4 -1.1
v 1 1.4 -1.2
v 1.1 1.1 -0.7
v 1.1 1.1 -0.8
v 1.1 1.1 -1.1
v 1.1 1.1 -1.2
v 1.1 1.4 -0.7
v 1.1 1.4 -0.8
v 1.1 1.4 -1.1
v 1.1 1.4 -1.2
v 1.1 2.7 -0.8
v 1.1 2.7 -1.1
v 1.1 2.9 -0.8
v 1.1 2.9 -1.1
v 1.2 1 -0.6
v 1.2 1 -0.9
v 1.2 1 -1
v 1.2 1 -1.3
v 1.2 1.1 -0.6
v 1.2 1.1 -0.9
v 1.2 1.1 -1
v 1.2 1.1 -1.3
v 1.3 1.9 -0.6
v 1.3 1.9 -1.3
v 1.3 2.7 -0.6
v 1.3 2.7 -1.3
v 1.4 1.5 -0.4
v 1.4 1.5 -0.6
v 1.4 1.5 -1.3
v 1.4 1.5 -1.5
v 1.4 1.8 -0.4
v 1.4 1.8 -0.6
v 1.4 1.8 -1.3
v 1.4 1.8 -1.5
v 1.6 1.4 -0.6
v 1.6 1.4 -0.7
v 1.6 1.4 -1.2
v 1.6 1.4 -1.3
v 1.6 1.9 -0.6
v 1.6 1.9 -0.7
v 1.6 1.9 -1.2
v 1.6 1.9 -1.3
v 1.7 1.4 -0.7
v 1.7 1.4 -1.2
v 1.7 1.9 -0.7
v 1.7 1.9 -1.2
v 0.8 1.5 -0.4
v 0.8 1.8 -0.4
v 1.4 1.5 -0.4
v 1.4 1.8 -0.4
v 0.6 1.4 -0.6
v 0.6 2.7 -0.6
v 0.7 1 -0.6
v 0.7 1.1 -0.6
v 0.8 1.5 -0.6
v 0.8 1.8 -0.6
v 0.8 2.3 -0.6
v 0.8 2.5 -0.6
v 0.9 2.3 -0.6
v 0.9 2.5 -0.6
v 1.2 1 -0.6
v 1.2 1.1 -0.6
v 1.3 1.9 -0.6
v 1.3 2.7 -0.6
v 1.4 1.5 -0.6
v 1.4 1.8 -0.6
v 1.6 1.4 -0.6
v 1.6 1.9 -0.6
v 1 1.1 -0.7
v 1 1.4 -0.7
v 1.1 1.1 -0.7
v 1.1 1.4 -0.7
v 1.6 1.4 -0.7
v 1.6 1.9 -0.7
v 1.7 1.4 -0.7
v 1.7 1.9 -0.7
v 0.3 2.3 -0.8
v 0.3 2.5 -0.8
v 0.5 2.1 -0.8
v 0.5 2.3 -0.8
v 0.6 2.1 -0.8
v 0.6 2.3 -0.8
v 0.6 2.5 -0.8
v 0.7 1 -0.8
v 0.7 1.1 -0.8
v 0.7 2.7 -0.8
v 0.7 2.9 -0.8
v 0.9 1 -0.8
v 0.9 1.1 -0.8
v 1.1 2.7 -0.8
v 1.1 2.9 -0.8
v 0.7 1 -1
v 0.7 1.1 -1
v 1.2 1 -1
v 1.2 1.1 -1
v 1 1.1 -1.1
v 1 1.4 -1.1
v 1.1 1.1 -1.1
v 1.1 1.4 -1.1
v 0.7 1 -1.2
v 0.7 1.1 -1.2
v 0.9 1 -1.2
v 0.9 1.1 -1.2
v 0.7 1 -0.7
v 0.7 1.1 -0.7
v 0.9 1 -0.7
v 0.9 1.1 -0.7
v 1 1.1 -0.8
v 1 1.4 -0.8
v 1.1 1.1 -0.8
v 1.1 1.4 -0.8
v 0.7 1 -0.9
v 0.7 1.1 -0.9
v 1.2 1 -0.9
v 1.2 1.1 -0.9
v 0.3 2.3 -1.1
v 0.3 2.5 -1.1
v 0.5 2.1 -1.1
v 0.5 2.3 -1.1
v 0.6 2.1 -1.1
v 0.6 2.3 -1.1
v 0.6 2.5 -1.1
v 0.7 1 -1.1
v 0.7 1.1 -1.1
v 0.7 2.7 -1.1
v 0.7 2.9 -1.1
v 0.9 1 -1.1
v 0.9 1.1 -1.1
v 1.1 2.7 -1.1
v 1.1 2.9 -1.1
v 1 1.1 -1.2
v 1 1.4 -1.2
v 1.1 1.1 -1.2
v 1.1 1.4 -1.2
v 1.6 1.4 -1.2
v 1.6 1.9 -1.2
v 1.7 1.4 -1.2
v 1.7 1.9 -1.2
v 0.6 1.4 -1.3
v 0.6 2.7 -1.3
v 0.7 1 -1.3
v 0.7 1.1 -1.3
v 0.8 1.5 -1.3
v 0.8 1.8 -1.3
v 0.8 2.3 -1.3
v 0.8 2.5 -1.3
v 0.9 2.3 -1.3
v 0.9 2.5 -1.3
v 1.2 1 -1.3
v 1.2 1.1 -1.3
v 1.3 1.9 -1.3
v 1.3 2.7 -1.3
v 1.4 1.5 -1.3
v 1.4 1.8 -1.3
v 1.6 1.4 -1.3
v 1.6 1.9 -1.3
v 0.8 1.5 -1.5
v 0.8 1.8 -1.5
v 1.4 1.5 -1.5
v 1.4 1.8 -1.5
v 0.7 1 -0.6
v 1.2 1 -0.6
v 0.7 1 -0.7
v 0.9 1 -0.7
v 0.7 1 -0.8
v 0.9 1 -0.8
v 0.7 1 -0.9
v 1.2 1 -0.9
v 0.7 1 -1
v 1.2 1 -1
v 0.7 1 -1.1
v 0.9 1 -1.1
v 0.7 1 -1.2
v 0.9 1 -1.2
v 0.7 1 -1.3
v 1.2 1 -1.3
v 0.6 1.4 -0.6
v 1.6 1.4 -0.6
v 1 1.4 -0.7
v 1.1 1.4 -0.7
v 1.6 1.4 -0.7
v 1.7 1.4 -0.7
v 1 1.4 -0.8
v 1.1 1.4 -0.8
v 1 1.4 -1.1
v 1.1 1.4 -1.1
v 1 1.4 -1.2
v 1.1 1.4 -1.2
v 1.6 1.4 -1.2
v 1.7 1.4 -1.2
v 0.6 1.4 -1.3
v 1.6 1.4 -1.3
v 0.8 1.5 -0.4
v 1.4 1.5 -0.4
v 0.8 1.5 -0.6
v 1.4 1.5 -0.6
v 0.8 1.5 -1.3
v 1.4 1.5 -1.3
v 0.8 1.5 -1.5
v 1.4 1.5 -1.5
v 0.5 2.1 -0.8
v 0.6 2.1 -0.8
v 0.5 2.1 -1.1
v 0.6 2.1 -1.1
v 0.3 2.3 -0.8
v 0.5 2.3 -0.8
v 0.3 2.3 -1.1
v 0.5 2.3 -1.1
v 0.7 1.1 -0.6
v 1.2 1.1 -0.6
v 0.7 1.1 -0.7
v 0.9 1.1 -0.7
v 1 1.1 -0.7
v 1.1 1.1 -0.7
v 0.7 1.1 -0.8
v 0.9 1.1 -0.8
v 1 1.1 -0.8
v 1.1 1.1 -0.8
v 0.7 1.1 -0.9
v 1.2 1.1 -0.9
v 0.7 1.1 -1
v 1.2 1.1 -1
v 0.7 1.1 -1.1
v 0.9 1.1 -1.1
v 1 1.1 -1.1
v 1.1 1.1 -1.1
v 0.7 1.1 -1.2
v 0.9 1.1 -1.2
v 1 1.1 -1.2
v 1.1 1.1 -1.2
v 0.7 1.1 -1.3
v 1.2 1.1 -1.3
v 0.8 1.8 -0.4
v 1.4 1.8 -0.4
v 0.8 1.8 -0.6
v 1.4 1.8 -0.6
v 0.8 1.8 -1.3
v 1.4 1.8 -1.3
v 0.8 1.8 -1.5
v 1.4 1.8 -1.5
v 1.3 1.9 -0.6
v 1.6 1.9 -0.6
v 1.6 1.9 -0.7
v 1.7 1.9 -0.7
v 1.6 1.9 -1.2
v 1.7 1.9 -1.2
v 1.3 1.9 -1.3
v 1.6 1.9 -1.3
v 0.3 2.5 -0.8
v 0.6 2.5 -0.8
v 0.3 2.5 -1.1
v 0.6 2.5 -1.1
v 0.6 2.7 -0.6
v 1.3 2.7 -0.6
v 0.7 2.7 -0.8
v 1.1 2.7 -0.8
v 0.7 2.7 -1.1
v 1.1 2.7 -1.1
v 0.6 2.7 -1.3
v 1.3 2.7 -1.3
v 0.7 2.9 -0.8
v 1.1 2.9 -0.8
v 0.7 2.9 -1.1
v 1.1 2.9 -1.1

# faces
f 3/2/1 2/2/1 1/2/1
f 4/2/1 2/2/1 3/2/1
f 7/3/1 6/3/1 5/3/1
f 8/3/1 6/3/1 7/3/1
f 11/1/1 10/1/1 9/1/1
f 12/1/1 10/1/1 11/1/1
f 13/1/1 11/1/1 9/1/1
f 14/1/1 10/1/1 12/1/1
f 15/1/1 13/1/1 9/1/1
f 16/1/1 10/1/1 14/1/1
f 17/1/1 15/1/1 9/1/1
f 17/1/1 16/1/1 15/1/1
f 18/1/1 10/1/1 16/1/1
f 18/1/1 16/1/1 17/1/1
f 27/2/1 20/2/1 19/2/1
f 28/2/1 20/2/1 27/2/1
f 29/2/1 22/2/1 21/2/1
f 30/2/1 22/2/1 29/2/1
f 31/2/1 24/2/1 23/2/1
f 32/2/1 24/2/1 31/2/1
f 33/2/1 26/2/1 25/2/1
f 34/2/1 26/2/1 33/2/1
f 37/3/1 36/3/1 35/3/1
f 38/3/1 36/3/1 37/3/1
f 43/1/1 40/1/1 39/1/1
f 44/1/1 40/1/1 43/1/1
f 45/1/1 42/1/1 41/1/1
f 46/1/1 42/1/1 45/1/1
f 51/2/1 48/2/1 47/2/1
f 52/2/1 48/2/1 51/2/1
f 53/2/1 50/2/1 49/2/1
f 54/2/1 50/2/1 53/2/1
f 59/2/1 56/2/1 55/2/1
f 60/2/1 56/2/1 59/2/1
f 61/2/1 58/2/1 57/2/1
f 62/2/1 58/2/1 61/2/1
f 63/2/2 64/2/2 67/2/2
f 67/2/2 64/2/2 68/2/2
f 65/2/2 66/2/2 69/2/2
f 69/2/2 66/2/2 70/2/2
f 71/3/2 72/3/2 73/3/2
f 73/3/2 72/3/2 74/3/2
f 75/2/2 76/2/2 79/2/2
f 79/2/2 76/2/2 80/2/2
f 77/2/2 78/2/2 81/2/2
f 81/2/2 78/2/2 82/2/2
f 83/1/2 84/1/2 85/1/2
f 85/1/2 84/1/2 86/1/2
f 87/1/2 88/1/2 91/1/2
f 91/1/2 88/1/2 92/1/2
f 89/1/2 90/1/2 93/1/2
f 93/1/2 90/1/2 94/1/2
f 95/1/2 96/1/2 99/1/2
f 99/1/2 96/1/2 100/1/2
f 97/1/2 98/1/2 101/1/2
f 101/1/2 98/1/2 102/1/2
f 103/1/2 104/1/2 105/1/2
f 105/1/2 104/1/2 106/1/2
f 109/1/3 108/1/3 107/1/3
f 110/1/3 108/1/3 109/1/3
f 115/1/3 112/1/3 111/1/3
f 116/1/3 112/1/3 115/1/3
f 117/1/3 112/1/3 116/1/3
f 118/1/3 112/1/3 117/1/3
f 119/1/3 117/1/3 116/1/3
f 119/4/3 118/4/3 117/4/3
f 120/1/3 112/1/3 118/1/3
f 120/4/3 118/4/3 119/4/3
f 121/2/3 114/2/3 113/2/3
f 122/2/3 114/2/3 121/2/3
f 123/1/3 119/1/3 116/1/3
f 123/1/3 120/1/3 119/1/3
f 124/1/3 112/1/3 120/1/3
f 124/1/3 120/1/3 123/1/3
f 125/1/3 115/1/3 111/1/3
f 126/1/3 123/1/3 116/1/3
f 127/1/3 125/1/3 111/1/3
f 127/1/3 126/1/3 125/1/3
f 128/1/3 123/1/3 126/1/3
f 128/1/3 126/1/3 127/1/3
f 131/2/3 130/2/3 129/2/3
f 132/2/3 130/2/3 131/2/3
f 135/1/3 134/1/3 133/1/3
f 136/1/3 134/1/3 135/1/3
f 140/2/3 138/2/3 137/2/3
f 141/3/3 140/3/3 139/3/3
f 142/2/3 138/2/3 140/2/3
f 142/3/3 140/3/3 141/3/3
f 143/2/3 138/2/3 142/2/3
f 148/2/3 145/2/3 144/2/3
f 149/2/3 145/2/3 148/2/3
f 150/3/3 147/3/3 146/3/3
f 151/3/3 147/3/3 150/3/3
f 154/2/3 153/2/3 152/2/3
f 155/2/3 153/2/3 154/2/3
f 158/2/3 157/2/3 156/2/3
f 159/2/3 157/2/3 158/2/3
f 162/2/3 161/2/3 160/2/3
f 163/2/3 161/2/3 162/2/3
f 164/2/4 165/2/4 166/2/4
f 166/2/4 165/2/4 167/2/4
f 168/2/4 169/2/4 170/2/4
f 170/2/4 169/2/4 171/2/4
f 172/2/4 173/2/4 174/2/4
f 174/2/4 173/2/4 175/2/4
f 176/2/4 177/2/4 179/2/4
f 178/3/4 179/3/4 180/3/4
f 179/2/4 177/2/4 181/2/4
f 180/3/4 179/3/4 181/3/4
f 181/2/4 177/2/4 182/2/4
f 183/2/4 184/2/4 187/2/4
f 187/2/4 184/2/4 188/2/4
f 185/3/4 186/3/4 189/3/4
f 189/3/4 186/3/4 190/3/4
f 191/2/4 192/2/4 193/2/4
f 193/2/4 192/2/4 194/2/4
f 195/1/4 196/1/4 197/1/4
f 197/1/4 196/1/4 198/1/4
f 199/1/4 200/1/4 203/1/4
f 203/1/4 200/1/4 204/1/4
f 204/1/4 200/1/4 205/1/4
f 205/1/4 200/1/4 206/1/4
f 204/1/4 205/1/4 207/1/4
f 205/4/4 206/4/4 207/4/4
f 206/1/4 200/1/4 208/1/4
f 207/4/4 206/4/4 208/4/4
f 201/2/4 202/2/4 209/2/4
f 209/2/4 202/2/4 210/2/4
f 204/1/4 207/1/4 211/1/4
f 207/1/4 208/1/4 211/1/4
f 208/1/4 200/1/4 212/1/4
f 211/1/4 208/1/4 212/1/4
f 199/1/4 203/1/4 213/1/4
f 204/1/4 211/1/4 214/1/4
f 199/1/4 213/1/4 215/1/4
f 213/1/4 214/1/4 215/1/4
f 214/1/4 211/1/4 216/1/4
f 215/1/4 214/1/4 216/1/4
f 217/1/4 218/1/4 219/1/4
f 219/1/4 218/1/4 220/1/4
f 223/2/5 222/2/5 221/2/5
f 224/2/5 222/2/5 223/2/5
f 226/2/5 222/2/5 224/2/5
f 227/2/5 226/2/5 225/2/5
f 228/2/5 222/2/5 226/2/5
f 228/2/5 226/2/5 227/2/5
f 231/2/5 230/2/5 229/2/5
f 232/2/5 230/2/5 231/2/5
f 234/2/5 230/2/5 232/2/5
f 235/2/5 234/2/5 233/2/5
f 236/2/5 230/2/5 234/2/5
f 236/2/5 234/2/5 235/2/5
f 239/1/5 238/1/5 237/1/5
f 240/1/5 238/1/5 239/1/5
f 241/1/5 238/1/5 240/1/5
f 243/1/5 239/1/5 237/1/5
f 244/1/5 242/1/5 241/1/5
f 244/1/5 241/1/5 240/1/5
f 245/1/5 243/1/5 237/1/5
f 245/1/5 244/1/5 243/1/5
f 246/1/5 242/1/5 244/1/5
f 246/1/5 244/1/5 245/1/5
f 247/1/5 245/1/5 237/1/5
f 248/1/5 242/1/5 246/1/5
f 249/1/5 242/1/5 248/1/5
f 250/1/5 242/1/5 249/1/5
f 251/1/5 247/1/5 237/1/5
f 251/1/5 248/1/5 247/1/5
f 251/1/5 249/1/5 248/1/5
f 252/1/5 249/1/5 251/1/5
f 255/1/5 254/1/5 253/1/5
f 256/1/5 254/1/5 255/1/5
f 259/1/5 258/1/5 257/1/5
f 260/1/5 258/1/5 259/1/5
f 263/3/5 262/3/5 261/3/5
f 264/3/5 262/3/5 263/3/5
f 267/2/5 266/2/5 265/2/5
f 268/2/5 266/2/5 267/2/5
f 269/2/6 270/2/6 271/2/6
f 271/2/6 270/2/6 272/2/6
f 272/2/6 270/2/6 273/2/6
f 273/2/6 270/2/6 274/2/6
f 272/2/6 273/2/6 276/2/6
f 276/2/6 273/2/6 277/2/6
f 274/2/6 270/2/6 278/2/6
f 276/2/6 277/2/6 279/2/6
f 277/2/6 278/2/6 279/2/6
f 275/2/6 276/2/6 279/2/6
f 278/2/6 270/2/6 280/2/6
f 279/2/6 278/2/6 280/2/6
f 281/2/6 282/2/6 283/2/6
f 283/2/6 282/2/6 284/2/6
f 284/2/6 282/2/6 285/2/6
f 285/2/6 282/2/6 286/2/6
f 284/2/6 285/2/6 288/2/6
f 288/2/6 285/2/6 289/2/6
f 286/2/6 282/2/6 290/2/6
f 288/2/6 289/2/6 291/2/6
f 289/2/6 290/2/6 291/2/6
f 287/2/6 288/2/6 291/2/6
f 290/2/6 282/2/6 292/2/6
f 291/2/6 290/2/6 292/2/6
f 293/1/6 294/1/6 295/1/6
f 295/1/6 294/1/6 296/1/6
f 297/1/6 298/1/6 299/1/6
f 299/1/6 298/1/6 300/1/6
f 301/1/6 302/1/6 303/1/6
f 301/1/6 303/1/6 305/1/6
f 303/1/6 304/1/6 305/1/6
f 305/1/6 304/1/6 306/1/6
f 301/1/6 305/1/6 307/1/6
f 307/1/6 305/1/6 308/1/6
f 309/2/6 310/2/6 311/2/6
f 311/2/6 310/2/6 312/2/6
f 313/1/6 314/1/6 315/1/6
f 315/1/6 314/1/6 316/1/6
f 313/1/6 315/1/6 317/1/6
f 316/1/6 314/1/6 318/1/6
f 313/1/6 317/1/6 319/1/6
f 317/1/6 318/1/6 319/1/6
f 318/1/6 314/1/6 320/1/6
f 319/1/6 318/1/6 320/1/6
f 321/3/6 322/3/6 323/3/6
f 323/3/6 322/3/6 324/3/6
